<svg width="81" height="125" viewBox="0 0 81 125" fill="none" xmlns="http://www.w3.org/2000/svg">
<path fill-rule="evenodd" clip-rule="evenodd" d="M39.0223 13.2103C44.3814 12.135 49.9205 12.4093 55.1504 14.0097C60.3806 15.6101 65.1442 18.4886 69.0169 22.3952C71.3939 24.7929 75.2645 24.8098 77.6622 22.4328C80.0599 20.0559 80.0768 16.1853 77.6998 13.7876C72.4114 8.45285 65.8958 4.51175 58.728 2.31841C51.5599 0.125002 43.9649 -0.25154 36.617 1.22283C29.2693 2.69716 22.4001 5.97584 16.6166 10.7637C10.8335 15.5513 6.31504 21.6995 3.45668 28.6605C0.598421 35.6213 -0.513113 43.1833 0.218622 50.6777C0.950364 58.1721 3.50332 65.3725 7.65531 71.6407C11.8075 77.9092 17.4319 83.0536 24.0343 86.6135C28.9323 89.2544 34.2551 90.9621 39.7358 91.6679L39.7358 118.019C39.7358 121.395 42.4728 124.132 45.849 124.132C49.2252 124.132 51.9622 121.395 51.9622 118.019L51.9622 55.358L74.8867 55.358C78.2629 55.358 80.9999 52.621 80.9999 49.2448C80.9999 45.8686 78.2629 43.1316 74.8867 43.1316L45.849 43.1316C42.4974 43.1316 39.7758 45.8288 39.7362 49.1709C39.7359 49.1956 39.7358 49.2204 39.7358 49.2452L39.7358 79.3024C36.2893 78.6894 32.9471 77.5288 29.8369 75.8518C25.0132 73.2509 20.8941 69.4871 17.8484 64.889C14.8025 60.2906 12.9253 55.0013 12.3872 49.4896C11.849 43.9777 12.667 38.4182 14.7667 33.3047C16.8663 28.1914 20.1814 23.685 24.4133 20.1816C28.6448 16.6785 33.6631 14.2856 39.0223 13.2103ZM56.5471 86.9237C56.5471 83.5475 59.2841 80.8105 62.6603 80.8105H64.1886C67.5648 80.8105 70.3018 83.5475 70.3018 86.9237C70.3018 90.3 67.5648 93.0369 64.1886 93.0369H62.6603C59.2841 93.0369 56.5471 90.3 56.5471 86.9237Z" fill="#79595D"/>
</svg>
