<?xml version="1.0" encoding="utf-8"?>
<!-- Generator: Adobe Illustrator 27.7.0, SVG Export Plug-In . SVG Version: 6.00 Build 0)  -->
<svg version="1.1" id="Layer_1" xmlns="http://www.w3.org/2000/svg" xmlns:xlink="http://www.w3.org/1999/xlink" x="0px" y="0px"
	 viewBox="0 0 34 34" style="enable-background:new 0 0 34 34;" xml:space="preserve">
<style type="text/css">
	.st0{fill:none;stroke:#E5DFE0;stroke-width:2.5;stroke-linecap:round;stroke-linejoin:round;}
</style>
<path class="st0" d="M32.8,10v14c0,2.3-0.9,4.6-2.6,6.2c-1.6,1.6-3.9,2.6-6.2,2.6H10c-2.3,0-4.6-0.9-6.2-2.6
	c-1.6-1.6-2.6-3.9-2.6-6.2V10c0-2.3,0.9-4.6,2.6-6.2C5.4,2.1,7.7,1.2,10,1.2h14c2.3,0,4.6,0.9,6.2,2.6C31.9,5.4,32.8,7.7,32.8,10z"
	/>
<path class="st0" d="M11.9,16.7c4.4,0,4.4,7.3,0,7.3H6.5v-7.3 M11.9,16.7H6.5 M11.9,16.7c4.4,0,4.4-6.7,0-6.7H6.5v6.7 M18.8,19.6
	c0-1.2,0.5-2.3,1.3-3.1c0.8-0.8,1.9-1.3,3.1-1.3s2.3,0.5,3.1,1.3c0.8,0.8,1.3,1.9,1.3,3.1H18.8z M18.8,19.6c0,1.2,0.5,2.3,1.3,3.1
	c0.8,0.8,1.9,1.3,3.1,1.3c1.6,0,2.6-0.6,3.2-1.1 M25.8,10.9h-5.3"/>
</svg>
