<?xml version="1.0" encoding="utf-8"?>
<!-- Generator: Adobe Illustrator 27.7.0, SVG Export Plug-In . SVG Version: 6.00 Build 0)  -->
<svg version="1.1" id="Layer_1" xmlns="http://www.w3.org/2000/svg" xmlns:xlink="http://www.w3.org/1999/xlink" x="0px" y="0px"
	 viewBox="0 0 34 34" style="enable-background:new 0 0 34 34;" xml:space="preserve">
<style type="text/css">
	.st0{fill:#E5DFE0;}
</style>
<path class="st0" d="M22.7,17c0-3.2-2.5-5.7-5.7-5.7s-5.7,2.6-5.7,5.7s2.5,5.7,5.7,5.7C20.1,22.7,22.7,20.1,22.7,17z M25.7,17
	c0,4.9-3.8,8.7-8.7,8.7S8.2,21.8,8.2,17s3.8-8.7,8.7-8.7S25.7,12.1,25.7,17z M28,7.8c0,1.3-0.9,2.1-2.1,2.1s-2.1-0.8-2.1-2.1
	s0.9-2.1,2.1-2.1S28,6.8,28,7.8z M17,2.9c-2.5,0-7.9-0.2-10,0.6C5.5,4.2,4.2,5.5,3.8,7c-0.9,2.1-0.6,7.4-0.6,10S3,24.9,3.8,27
	c0.4,1.5,1.7,2.8,3.2,3.2c2.1,0.9,7.6,0.6,10,0.6c2.3,0,7.9,0.2,10-0.6c1.5-0.6,2.6-1.7,3.2-3.2c0.8-2.3,0.6-7.6,0.6-10
	S31,9.1,30.1,7c-0.4-1.5-1.7-2.8-3.2-3.2C24.8,2.7,19.5,2.9,17,2.9z M34,17v7c0,2.5-0.9,5.1-2.8,7.2C29.3,33.1,26.7,34,24,34H10
	c-2.5,0-5.1-0.8-7.2-2.8C1,29.3,0,26.7,0,24V10c0-2.8,1-5.4,2.7-7.3C4.8,1,7.4,0,9.9,0h14c2.5,0,5.1,0.9,7.2,2.8
	C32.9,4.6,34,7.2,34,9.9V17z"/>
</svg>
