<svg width="33" height="32" viewBox="0 0 33 32" fill="none" xmlns="http://www.w3.org/2000/svg">
<path d="M22.0351 16C22.0351 13 19.5751 10.6 16.5001 10.6C13.4251 10.6 10.9651 13 10.9651 16C10.9651 19 13.4251 21.4 16.5001 21.4C19.5751 21.4 22.0351 19 22.0351 16ZM24.9051 16C24.9051 20.6 21.2151 24.2 16.5001 24.2C11.7851 24.2 8.0951 20.6 8.0951 16C8.0951 11.4 11.7851 7.8 16.5001 7.8C21.2151 7.8 24.9051 11.4 24.9051 16ZM27.1601 7.4C27.1601 8.6 26.3401 9.4 25.1101 9.4C23.8801 9.4 23.0601 8.6 23.0601 7.4C23.0601 6.2 23.8801 5.4 25.1101 5.4C26.3401 5.4 27.1601 6.4 27.1601 7.4ZM16.5001 2.8C14.0401 2.8 8.9151 2.6 6.8651 3.4C5.4301 4 4.2001 5.2 3.7901 6.6C2.9701 8.6 3.1751 13.6 3.1751 16C3.1751 18.4 2.9701 23.4 3.7901 25.4C4.2001 26.8 5.4301 28 6.8651 28.4C8.9151 29.2 14.2451 29 16.5001 29C18.7551 29 24.0851 29.2 26.1351 28.4C27.5701 27.8 28.5951 26.8 29.2101 25.4C30.0301 23.2 29.8251 18.2 29.8251 16C29.8251 13.8 30.0301 8.6 29.2101 6.6C28.8001 5.2 27.5701 4 26.1351 3.6C24.0851 2.6 18.9601 2.8 16.5001 2.8ZM32.9001 16V22.6C32.9001 25 32.0801 27.4 30.2351 29.4C28.3901 31.2 25.9301 32 23.2651 32H9.7351C7.2751 32 4.8151 31.2 2.7651 29.4C1.1251 27.6 0.100098 25.2 0.100098 22.6V9.4C0.100098 6.8 1.1251 4.4 2.7651 2.6C4.8151 1 7.2751 0 9.7351 0H23.2651C25.7251 0 28.1851 0.8 30.2351 2.6C31.8751 4.4 32.9001 6.8 32.9001 9.4V16Z" fill="#634246"/>
</svg>
