<svg width="42" height="42" viewBox="0 0 42 42" fill="none" xmlns="http://www.w3.org/2000/svg">
<path d="M12.25 29.75V17.5M36.75 14V28C36.75 30.3206 35.8281 32.5462 34.1872 34.1872C32.5462 35.8281 30.3206 36.75 28 36.75H14C11.6794 36.75 9.45376 35.8281 7.81282 34.1872C6.17187 32.5462 5.25 30.3206 5.25 28V14C5.25 11.6794 6.17187 9.45376 7.81282 7.81282C9.45376 6.17187 11.6794 5.25 14 5.25H28C30.3206 5.25 32.5462 6.17187 34.1872 7.81282C35.8281 9.45376 36.75 11.6794 36.75 14Z" stroke="#634246" stroke-width="2.5" stroke-linecap="round" stroke-linejoin="round"/>
<path d="M19.25 29.7498V24.0623M19.25 24.0623V17.4998M19.25 24.0623C19.25 17.4998 29.75 17.4998 29.75 24.0623V29.7498M12.25 12.2673L12.2675 12.248" stroke="#634246" stroke-width="2.5" stroke-linecap="round" stroke-linejoin="round"/>
</svg>
