<svg width="36" height="28" viewBox="0 0 36 28" fill="none" xmlns="http://www.w3.org/2000/svg">
<path d="M6.1875 1.22066e-08H29.8125C31.2652 -9.51068e-05 32.663 0.555719 33.7189 1.55343C34.7749 2.55113 35.409 3.91509 35.4913 5.3655L35.5 5.6875V22.3125C35.5001 23.7652 34.9443 25.163 33.9466 26.2189C32.9489 27.2749 31.5849 27.909 30.1345 27.9913L29.8125 28H6.1875C4.73476 28.0001 3.33705 27.4443 2.2811 26.4466C1.22514 25.4489 0.590998 24.0849 0.50875 22.6345L0.5 22.3125V5.6875C0.499905 4.23476 1.05572 2.83705 2.05343 1.7811C3.05113 0.725142 4.41509 0.0909977 5.8655 0.00875021L6.1875 1.22066e-08ZM32.875 9.40275L18.6125 16.9103C18.4515 16.9953 18.2745 17.0459 18.0928 17.0589C17.9111 17.0719 17.7287 17.0469 17.5572 16.9855L17.3893 16.912L3.125 9.4045V22.3125C3.12503 23.0811 3.41405 23.8216 3.93469 24.3869C4.45533 24.9523 5.16952 25.3013 5.9355 25.3645L6.1875 25.375H29.8125C30.5814 25.3749 31.3221 25.0857 31.8875 24.5647C32.4529 24.0437 32.8017 23.329 32.8645 22.5627L32.875 22.3125V9.40275ZM29.8125 2.625H6.1875C5.41892 2.62503 4.67844 2.91405 4.11307 3.43469C3.54769 3.95533 3.19874 4.66952 3.1355 5.4355L3.125 5.6875V6.43825L18 14.266L32.875 6.4365V5.6875C32.8749 4.91864 32.5857 4.17793 32.0647 3.61251C31.5437 3.04709 30.829 2.69833 30.0627 2.6355L29.8125 2.625Z" fill="#79595D"/>
</svg>
