<?xml version="1.0" encoding="utf-8"?>
<!-- Generator: Adobe Illustrator 27.7.0, SVG Export Plug-In . SVG Version: 6.00 Build 0)  -->
<svg version="1.1" id="Layer_1" xmlns="http://www.w3.org/2000/svg" xmlns:xlink="http://www.w3.org/1999/xlink" x="0px" y="0px"
	 viewBox="0 0 34 34" style="enable-background:new 0 0 34 34;" xml:space="preserve">
<style type="text/css">
	.st0{fill:none;stroke:#E5DFE0;stroke-width:2.5;stroke-linecap:round;stroke-linejoin:round;}
</style>
<path class="st0" d="M8.2,25.8V13.5 M32.8,10v14c0,2.3-0.9,4.5-2.6,6.2c-1.6,1.6-3.9,2.6-6.2,2.6H10c-2.3,0-4.5-0.9-6.2-2.6
	c-1.6-1.6-2.6-3.9-2.6-6.2V10c0-2.3,0.9-4.5,2.6-6.2C5.5,2.2,7.7,1.2,10,1.2h14c2.3,0,4.5,0.9,6.2,2.6C31.8,5.5,32.8,7.7,32.8,10z"
	/>
<path class="st0" d="M15.2,25.7V20 M15.2,20.1v-6.6 M15.2,20.1c0-6.6,10.5-6.6,10.5,0v5.7 M8.2,8.3L8.2,8.3"/>
</svg>
