<svg width="43" height="43" viewBox="0 0 43 43" fill="none" xmlns="http://www.w3.org/2000/svg">
<path d="M37.625 14.3333V28.6667C37.625 31.0426 36.6812 33.3212 35.0012 35.0012C33.3212 36.6812 31.0426 37.625 28.6667 37.625H14.3333C11.9574 37.625 9.67885 36.6812 7.99884 35.0012C6.31882 33.3212 5.375 31.0426 5.375 28.6667V14.3333C5.375 11.9574 6.31882 9.67885 7.99884 7.99884C9.67885 6.31882 11.9574 5.375 14.3333 5.375H28.6667C31.0426 5.375 33.3212 6.31882 35.0012 7.99884C36.6812 9.67885 37.625 11.9574 37.625 14.3333Z" stroke="#634246" stroke-width="2.5" stroke-linecap="round" stroke-linejoin="round"/>
<path d="M16.3024 21.1879C20.8442 21.1879 20.8442 28.6663 16.3024 28.6663H10.75V21.1879M16.3024 21.1879H10.75M16.3024 21.1879C20.8442 21.1879 20.8442 14.333 16.3024 14.333H10.75V21.1879M23.2917 24.1872C23.2917 22.9992 23.7636 21.8599 24.6036 21.0199C25.4436 20.1799 26.5829 19.708 27.7708 19.708C28.9588 19.708 30.0981 20.1799 30.9381 21.0199C31.7781 21.8599 32.25 22.9992 32.25 24.1872H23.2917ZM23.2917 24.1872C23.2917 25.3751 23.7636 26.5144 24.6036 27.3544C25.4436 28.1944 26.5829 28.6663 27.7708 28.6663C29.4335 28.6663 30.4404 28.0894 31.0191 27.5555M30.4583 15.2288H25.0833" stroke="#634246" stroke-width="2.5" stroke-linecap="round" stroke-linejoin="round"/>
</svg>
