<?xml version="1.0" encoding="utf-8"?>
<!-- Generator: Adobe Illustrator 27.7.0, SVG Export Plug-In . SVG Version: 6.00 Build 0)  -->
<svg version="1.1" id="Layer_1" xmlns="http://www.w3.org/2000/svg" xmlns:xlink="http://www.w3.org/1999/xlink" x="0px" y="0px"
	 viewBox="0 0 34 28" style="enable-background:new 0 0 34 28;" xml:space="preserve">
<style type="text/css">
	.st0{fill:#E5DFE0;}
</style>
<path class="st0" d="M5.5,0h23c1.4,0,2.8,0.6,3.8,1.6S33.9,4,34,5.4v0.3v16.6c0,1.5-0.5,2.9-1.5,3.9c-1,1.1-2.3,1.7-3.7,1.8h-0.3
	h-23c-1.4,0-2.8-0.6-3.8-1.6S0.1,24,0,22.6v-0.3V5.7c0-1.5,0.5-2.9,1.5-3.9c1-1.1,2.3-1.7,3.7-1.8L5.5,0z M31.5,9.4l-13.9,7.5
	C17.4,17,17.3,17,17.1,17s-0.4,0-0.5-0.1l-0.2-0.1L2.5,9.4v12.9c0,0.8,0.3,1.5,0.8,2.1s1.2,0.9,1.9,1h0.2h23c0.7,0,1.5-0.3,2-0.8
	s0.9-1.2,0.9-2v-0.3V9.4H31.5z M28.5,2.6h-23c-0.7,0-1.5,0.3-2,0.8C3,4,2.6,4.7,2.6,5.4v0.3v0.8L17,14.3l14.5-7.8V5.7
	c0-0.8-0.3-1.5-0.8-2.1s-1.2-0.9-1.9-1H28.5z"/>
</svg>
